<svg id="_x33_0" enable-background="new 0 0 64 64" height="512" viewBox="0 0 64 64" width="512" xmlns="http://www.w3.org/2000/svg" xmlns:xlink="http://www.w3.org/1999/xlink"><linearGradient id="SVGID_1_" gradientUnits="userSpaceOnUse" x1="32" x2="32" y1="63" y2=".896"><stop offset="0" stop-color="#9f2fff"/><stop offset="1" stop-color="#0bb1d3"/></linearGradient><path d="m9.168 17.445 4-6 1.664 1.109-4 6zm4.832-.445c0 .552.448 1 1 1s1-.448 1-1-.448-1-1-1-1 .448-1 1zm-5-3c.552 0 1-.448 1-1s-.448-1-1-1-1 .448-1 1 .448 1 1 1zm-5.407 18.111c-1.697-3.091-2.593-6.588-2.593-10.111 0-10.903 8.126-19.929 18.901-20.995l1.099-.109v20.58l-16.875 11.604zm-.593-10.111c0 2.818.634 5.617 1.842 8.161l14.158-9.737v-17.287c-9.057 1.451-16 9.529-16 18.863zm28.215 21.717c2.314 2.018 3.785 4.979 3.785 8.283 0 6.065-4.935 11-11 11s-11-4.935-11-11c0-3.304 1.471-6.265 3.785-8.283-3.412-1.245-6.432-3.339-8.809-6.151l-.7-.828 16.724-11.967 16.724 11.967-.7.828c-2.378 2.812-5.398 4.906-8.809 6.151zm-2.215-1.503v-11.406l-2-1.431v12.05c.698.198 1.366.462 2 .787zm2-.552c.687-.272 1.353-.584 2-.933v-7.059l-2-1.431zm-7-14.433-1 .716v13.106c.33-.03.662-.051 1-.051s.67.021 1 .051v-13.106zm-7 14.433v-9.423l-2 1.431v7.059c.647.349 1.313.662 2 .933zm4-.236v-12.05l-2 1.431v11.407c.634-.325 1.302-.589 2-.788zm-10.771-4.341c.849.897 1.78 1.697 2.771 2.404v-4.387zm13.771 5.915c-4.963 0-9 4.037-9 9s4.037 9 9 9 9-4.037 9-9-4.037-9-9-9zm13.771-5.915-2.771-1.983v4.387c.992-.708 1.922-1.507 2.771-2.404zm-12.771 10.099v-2.184h-2v2h-2v3c0 1.654 1.346 3 3 3 .552 0 1 .448 1 1v1h-1c-.552 0-1-.448-1-1v-1h-2v1c0 1.302.839 2.402 2 2.816v2.184h2v-2h2v-3c0-1.654-1.346-3-3-3-.552 0-1-.448-1-1v-1h1c.552 0 1 .448 1 1v1h2v-1c0-1.302-.839-2.402-2-2.816zm20 15.816v-8.5l-1.611-1.208c-1.466-1.1-2.518-2.684-2.961-4.46l-1.262-5.045c-.11-.443-.166-.895-.166-1.348 0-1.863.925-3.592 2.475-4.624l3.525-2.35v-6.465h-.614c-.436 1.781-1.091 3.497-1.981 5.104l-.534.963-16.871-11.59v-20.581l1.099.109c2.952.292 5.837 1.236 8.41 2.735 1.858-2.905 5.289-4.74 9.491-4.74 6.374 0 11 4.206 11 10 0 3.223-1.833 5.339-3.451 7.207-1.105 1.277-2.151 2.484-2.549 3.922v1.055c1.161.414 2 1.514 2 2.816v3.184c.314-.112.648-.184 1-.184 1.383 0 2.539.945 2.884 2.22.346-.139.721-.22 1.116-.22 1.383 0 2.539.945 2.884 2.22.346-.139.721-.22 1.116-.22 1.654 0 3 1.346 3 3v27zm16-8h-14v6h14zm-26-44c0 2.477 1.439 4.138 2.963 5.897 1.073 1.239 2.176 2.515 2.769 4.103h.268v-8h-1c-1.654 0-3-1.346-3-3s1.346-3 3-3 3 1.346 3 3v1h2v-1c0-1.654 1.346-3 3-3s3 1.346 3 3-1.346 3-3 3h-1v8h.268c.593-1.588 1.696-2.864 2.769-4.103 1.524-1.759 2.963-3.42 2.963-5.897 0-4.71-3.701-8-9-8s-9 3.29-9 8zm6-1c0-.551-.448-1-1-1s-1 .449-1 1 .448 1 1 1h1zm4 3h-2v8h2zm3-2c.552 0 1-.449 1-1s-.448-1-1-1-1 .449-1 1v1zm-5.667 18h-.333c-1.654 0-3-1.346-3-3v-3.871c-.397-1.438-1.443-2.646-2.549-3.922-1.618-1.868-3.451-3.984-3.451-7.207 0-1.231.22-2.383.61-3.446-2.036-1.206-4.283-2.044-6.61-2.417v17.287l14.162 9.73c.486-1.015.876-2.07 1.171-3.154zm2.667-2v-1c0-1.306.844-2.408 2.011-2.819l.002-.181h-6.013v3c0 .551.448 1 1 1zm-.411 24.691 1.744 1.309h14.667v-17c0-.552-.448-1-1-1s-1 .448-1 1v6h-2v-8c0-.552-.448-1-1-1s-1 .448-1 1v8h-2v-10c0-.551-.448-1-1-1s-1 .449-1 1v10h-2v-16c0-.551-.448-1-1-1s-1 .449-1 1v13.764c0 1.76-.979 3.343-2.553 4.131l-.895-1.789c.893-.447 1.448-1.344 1.448-2.342v-1.895l-2.416 1.611c-.992.661-1.584 1.767-1.584 2.959 0 .289.036.58.106.863l1.261 5.044c.333 1.333 1.122 2.52 2.222 3.345z" fill="url(#SVGID_1_)"/></svg>